<svg width="100" height="229" viewBox="0 0 100 229" fill="none" xmlns="http://www.w3.org/2000/svg">
<path d="M64.731 12.1557C66.2999 12.3285 66.8177 9.93267 67.0806 8.55646C67.9564 3.97105 66.6557 1.66632 62.3052 1.17328C51.8702 -0.00934006 41.1918 4.78078 42.049 17.8565C42.7028 27.8289 44.4429 37.2952 44.5483 47.4152C44.6909 61.1069 44.8699 75.4352 40.9292 88.6811C36.2733 104.331 18.9096 120.708 3.21506 118.979C0.420436 118.671 0.464301 114.26 2.26939 112.638C6.60234 108.742 13.3024 106.455 18.6405 105.347C25.2298 103.98 31.7305 106.085 35.8529 111.946C40.094 117.975 38.6513 126.594 37.6631 133.628C35.9127 146.089 34.1164 157.275 34.6303 169.968C35.1324 182.37 34.0586 201.094 41.9198 210.814C49.0453 219.623 57.5709 226.025 68.5894 226.973C81.3206 228.068 93.0138 210.128 98.428 199.259" stroke="#0038FF" stroke-width="2" stroke-linecap="round" stroke-linejoin="round"/>
</svg>
