<svg width="116" height="87" viewBox="0 0 116 87" fill="none" xmlns="http://www.w3.org/2000/svg">
<path d="M12.163 82.8877C15.1962 74.4542 18.5113 69.8815 24.6364 64.2983C31.7659 57.7995 38.2682 50.5345 45.5173 44.2059C59.1426 32.3107 69.8227 16.735 84.0057 5.72194C85.4177 4.62551 87.037 3.66096 88.1061 2.08317C88.8767 0.945883 87.428 0.674277 87.2446 1.41078C85.7674 7.34558 85.6157 14.691 85.0394 20.7912C83.2868 39.3436 82.8686 57.7671 82.8686 76.4012C82.8686 78.8101 84.4117 87.6301 80.6978 85.7354C74.7985 82.7258 69.9347 73.7367 65.5368 68.6886C53.7903 55.2052 42.8292 39.936 28.0132 30.6792C22.4784 27.2212 16.8525 24.786 11.6806 20.5539C8.35059 17.8291 5.44022 14.7102 2.23936 11.8525C-2.64459 7.49217 8.34944 10.5238 10.3023 10.9823C24.0885 14.2192 37.3933 19.3221 50.9615 23.4807C67.0387 28.4084 83.6481 28.0543 100.097 29.3344C104.759 29.6972 118.669 29.3109 114.087 30.3628C106.956 31.9998 101.395 36.4318 94.9975 40.1716C79.9481 48.9689 63.8111 53.3189 47.8604 59.3939C38.3841 63.003 28.8609 66.7663 19.2611 69.9147C13.7323 71.7279 8.89274 73.5246 4.10004 77.1922" stroke="#0038FF" stroke-width="2" stroke-linecap="round"/>
</svg>
