<svg width="127" height="85" viewBox="0 0 127 85" fill="none" xmlns="http://www.w3.org/2000/svg">
<path d="M0.999772 51.7018C16.8226 37.2375 34.854 23.4345 52.9808 11.3891C56.9135 8.7758 60.8078 5.23811 65.2413 3.32714C67.3825 2.40422 69.7823 2.11636 71.8876 1.21882C74.5424 0.0869945 73.6702 3.62896 73.8398 5.44756C74.8921 16.731 71.5185 28.4989 70.5816 39.6408C69.6282 50.98 69.6307 61.9707 72.0831 73.2705C72.8283 76.7042 75.8975 86.337 76.7003 82.978C77.0635 81.4582 73.0505 75.3514 72.1254 74.0003C66.2829 65.4676 60.1903 56.8743 54.0863 48.49C49.9176 42.764 46.0222 36.84 41.3658 31.4152C37.9097 27.3889 33.8494 23.885 30.3967 19.8626C27.4114 16.3847 24.2996 13.0798 21.1466 9.73488C19.8064 8.31308 17.6589 7.0054 16.6226 5.38219C16.4653 5.13575 29.884 8.43831 31.4565 8.92743C47.8008 14.0113 63.4961 21.2129 79.763 26.6228C92.6603 30.9122 105.583 34.2986 118.798 37.4568C121.16 38.0215 123.297 38.4985 125.432 39.6313C126.635 40.2696 121.476 40.9506 120.67 41.1105C107.787 43.6676 94.2058 44.4624 81.0667 45.8108C63.9702 47.5653 46.6537 48.886 29.4369 49.7306C22.5256 50.0697 15.2396 49.6056 8.43297 50.534" stroke="#0038FF" stroke-width="2" stroke-linecap="round"/>
</svg>
