<svg width="97" height="70" viewBox="0 0 97 70" fill="none" xmlns="http://www.w3.org/2000/svg">
<path d="M9.04977 56.7689C7.94158 55.1885 9.49961 54.4797 10.4808 53.5943C13.9148 50.4955 16.8016 46.9425 19.7828 43.1634C24.1265 37.6572 28.6525 32.3029 32.7817 26.5345C36.0562 21.9602 38.6802 16.8573 42.3221 12.7023C43.1496 11.7583 50.2661 3.19563 48.6427 1.13772C47.4584 -0.363522 47.7764 10.8938 47.8079 11.3418C49.0192 28.5726 50.8134 47.7176 55.7384 63.9495C56.801 67.4515 59.2942 71.0108 55.321 67.6532C50.1129 63.2519 46.1591 57.1501 41.6662 51.7046C36.553 45.5073 33.2304 37.3164 27.5344 31.9011C23.1735 27.7552 18.3529 24.97 13.5815 21.7348C12.9014 21.2737 2.27472 14.079 3.44474 13.2314C6.38701 11.1002 10.4722 13.3232 13.4026 14.2519C25.1457 17.9733 36.5894 23.848 48.4638 26.7613C62.493 30.2033 76.6559 25.3553 90.74 27.177C93.8834 27.5836 98.7227 28.3025 94.0791 31.5988C87.8401 36.0277 78.9393 36.8129 72.0466 38.4015C56.7076 41.9368 41.8475 47.7214 26.5207 51.3267C20.2455 52.8028 13.9268 54.4006 7.52925 54.6903C5.57863 54.7786 2.20498 55.6587 1 53.3675" stroke="#0038FF" stroke-width="2" stroke-linecap="round"/>
</svg>
